<svg width="1200" height="900" viewBox="0 0 1200 900" fill="none" xmlns="http://www.w3.org/2000/svg">
  <rect width="1200" height="900" fill="#EFE4D6"/>
  <rect x="68" y="70" width="1064" height="760" rx="52" fill="url(#paint0_linear_1_1)"/>
  <path d="M174 614L516 350C552 322 603 322 639 350L981 614V690H174V614Z" fill="#FFFFFF" fill-opacity="0.85"/>
  <path d="M274 618H886V700H274V618Z" fill="#D6B38C"/>
  <rect x="330" y="430" width="148" height="126" rx="22" fill="#B47E73"/>
  <rect x="525" y="430" width="148" height="126" rx="22" fill="#F6ECDD"/>
  <rect x="720" y="430" width="148" height="126" rx="22" fill="#B47E73"/>
  <rect x="520" y="562" width="120" height="138" rx="18" fill="#6F0D16"/>
  <path d="M188 670C292 598 373 562 431 562C496 562 555 598 608 670" stroke="#6F0D16" stroke-opacity="0.26" stroke-width="18" stroke-linecap="round"/>
  <path d="M692 670C796 598 877 562 935 562C1000 562 1059 598 1112 670" stroke="#6F0D16" stroke-opacity="0.18" stroke-width="18" stroke-linecap="round"/>
  <text x="140" y="148" fill="#6F0D16" fill-opacity="0.72" font-family="Arial, sans-serif" font-size="42" letter-spacing="6">PROJECT PLACEHOLDER</text>
  <defs>
    <linearGradient id="paint0_linear_1_1" x1="130" y1="140" x2="1024" y2="824" gradientUnits="userSpaceOnUse">
      <stop stop-color="#F8F1E7"/>
      <stop offset="1" stop-color="#D8B08D"/>
    </linearGradient>
  </defs>
</svg>
