<svg width="1200" height="900" viewBox="0 0 1200 900" fill="none" xmlns="http://www.w3.org/2000/svg">
  <rect width="1200" height="900" fill="#F7EFE5"/>
  <rect x="68" y="70" width="1064" height="760" rx="52" fill="url(#paint0_linear_3_1)"/>
  <path d="M194 654L472 334C518 282 599 278 650 324L1000 642V710H194V654Z" fill="#FFFFFF" fill-opacity="0.82"/>
  <rect x="300" y="412" width="154" height="160" rx="22" fill="#F8F1E7"/>
  <rect x="490" y="412" width="154" height="160" rx="22" fill="#B78275"/>
  <rect x="680" y="412" width="154" height="160" rx="22" fill="#F8F1E7"/>
  <rect x="870" y="412" width="82" height="160" rx="22" fill="#B78275"/>
  <rect x="538" y="548" width="124" height="162" rx="18" fill="#6F0D16"/>
  <path d="M246 718C354 626 455 580 548 580" stroke="#6F0D16" stroke-opacity="0.16" stroke-width="18" stroke-linecap="round"/>
  <path d="M664 580C755 580 864 630 972 720" stroke="#6F0D16" stroke-opacity="0.22" stroke-width="18" stroke-linecap="round"/>
  <circle cx="920" cy="226" r="74" fill="#FFFFFF" fill-opacity="0.44"/>
  <text x="140" y="148" fill="#6F0D16" fill-opacity="0.72" font-family="Arial, sans-serif" font-size="42" letter-spacing="6">PROJECT PLACEHOLDER</text>
  <defs>
    <linearGradient id="paint0_linear_3_1" x1="154" y1="118" x2="1026" y2="814" gradientUnits="userSpaceOnUse">
      <stop stop-color="#FFF6EB"/>
      <stop offset="1" stop-color="#D0A27E"/>
    </linearGradient>
  </defs>
</svg>
