<svg width="520" height="520" viewBox="0 0 520 520" fill="none" xmlns="http://www.w3.org/2000/svg">
  <rect width="520" height="520" rx="42" fill="#FFFDF9"/>
  <rect x="42" y="42" width="436" height="436" rx="28" fill="#F5EEE4"/>
  <rect x="80" y="80" width="108" height="108" rx="14" fill="#6F0D16"/>
  <rect x="100" y="100" width="68" height="68" rx="10" fill="#FFFDF9"/>
  <rect x="332" y="80" width="108" height="108" rx="14" fill="#6F0D16"/>
  <rect x="352" y="100" width="68" height="68" rx="10" fill="#FFFDF9"/>
  <rect x="80" y="332" width="108" height="108" rx="14" fill="#6F0D16"/>
  <rect x="100" y="352" width="68" height="68" rx="10" fill="#FFFDF9"/>
  <rect x="240" y="236" width="36" height="36" rx="8" fill="#6F0D16"/>
  <rect x="286" y="236" width="36" height="36" rx="8" fill="#C49B70"/>
  <rect x="240" y="282" width="36" height="36" rx="8" fill="#C49B70"/>
  <rect x="286" y="282" width="36" height="36" rx="8" fill="#6F0D16"/>
  <rect x="240" y="332" width="36" height="36" rx="8" fill="#6F0D16"/>
  <rect x="286" y="332" width="82" height="36" rx="8" fill="#6F0D16"/>
  <rect x="240" y="378" width="128" height="36" rx="8" fill="#C49B70"/>
  <rect x="378" y="236" width="36" height="36" rx="8" fill="#6F0D16"/>
  <rect x="378" y="282" width="36" height="86" rx="8" fill="#C49B70"/>
  <text x="142" y="494" fill="#6F0D16" fill-opacity="0.72" font-family="Arial, sans-serif" font-size="28" letter-spacing="4">QR PLACEHOLDER</text>
</svg>
